<svg width="1652" height="627" viewBox="0 0 1652 627" fill="none" xmlns="http://www.w3.org/2000/svg">
<path d="M647.34 28.7198C652.47 53.1398 657.6 77.5498 662.73 101.97C663.68 106.49 665.02 108.23 667.37 108.96C667.42 109.22 667.56 109.86 667.56 109.86C662.11 110.98 656.67 112.17 651.24 113.4C651.24 113.4 651.09 112.76 651.03 112.5C652.74 110.89 653.36 108.72 652.35 104.22C646.54 78.2898 640.73 52.3499 634.92 26.4199C626.07 49.9599 618.24 73.5999 611.42 97.2699C611.02 97.3799 610.61 97.4899 610.21 97.5999C592.29 82.6399 573.54 68.2399 553.98 54.4799C560.96 75.7099 567.95 96.9499 574.93 118.18C576.72 123.57 582.8 128.93 587.73 129.72C587.81 129.97 588.01 130.6 588.01 130.6C582.24 132.43 576.48 134.33 570.74 136.29C570.74 136.29 570.52 135.66 570.44 135.42C573.94 131.85 575.64 123.92 573.88 118.53C566.73 96.8899 559.58 75.2399 552.43 53.5999C549.44 51.7199 546.43 49.8499 543.4 47.9899C547.71 46.5299 552.02 45.0999 556.35 43.7099C576.11 57.8299 595.04 72.5899 613.11 87.9099C619.62 65.9799 627 44.0799 635.24 22.2799C639.79 21.2699 644.35 20.2899 648.92 19.3499C648.92 19.3499 649.08 20.1299 649.13 20.3799C647.01 22.0299 646.37 24.0599 647.35 28.7099L647.34 28.7198Z" fill="#EDEDED"/>
<path d="M760.69 96.3599C753.83 96.9399 746.98 97.6099 740.13 98.3699C740.1 98.0599 740.06 97.76 740.03 97.45C743.12 93.66 741.61 89.17 736.71 80.02C733.86 74.72 730.96 69.4299 728.01 64.1599C716.5 65.5499 705.02 67.1899 693.57 69.0699C692.86 72.5699 692.17 76.08 691.5 79.58C689.13 92.17 689.67 98.6399 696.23 103.55C696.28 103.85 696.33 104.16 696.38 104.46C691.17 105.34 685.96 106.26 680.76 107.24C680.7 106.94 680.65 106.64 680.59 106.33C685.19 99.42 687.99 92.7599 690.41 79.7599C694.13 60.2899 698.34 40.83 703.01 21.4C700.86 17.89 698.69 14.3799 696.49 10.8799C700.4 10.2999 704.3 9.73995 708.22 9.19995C720.89 30.03 732.84 51.1299 744.08 72.4399C751.05 84.9899 755.01 89.9399 760.61 95.4199C760.64 95.7299 760.66 96.03 760.69 96.34V96.3599ZM727.47 63.1699C719.88 49.5999 711.99 36.1299 703.81 22.7599C700.2 37.8099 696.87 52.88 693.83 67.96C705.02 66.13 716.24 64.5299 727.48 63.1599L727.47 63.1699Z" fill="#EDEDED"/>
<path d="M783.35 11.0898C784.61 36.0098 785.87 60.9198 787.13 85.8398C787.37 90.4598 788.4 92.3798 790.61 93.4698C790.62 93.7298 790.65 94.3898 790.65 94.3898C785.12 94.6498 779.59 94.9598 774.06 95.3398C774.06 95.3398 774.02 94.6798 774 94.4198C775.93 93.0898 776.74 91.0598 776.45 86.4498C774.86 61.5498 773.26 36.6498 771.67 11.7598C771.38 7.14983 770.21 5.23983 767.89 4.19983C767.87 3.93983 767.82 3.14984 767.82 3.14984C773.99 2.72984 780.17 2.37984 786.34 2.08984C786.34 2.08984 786.38 2.87983 786.39 3.13983C784.06 4.43983 783.11 6.46983 783.35 11.0798V11.0898Z" fill="#EDEDED"/>
<path d="M881.05 13.8499C879.3 18.3299 877.56 22.8099 875.86 27.2999C875.52 27.2799 875.18 27.2599 874.84 27.2399C867.54 9.11989 856.76 1.91991 844.95 1.68991C830.11 1.41991 821.64 8.94989 820.85 16.8599C818.42 42.6499 880.2 35.4799 877.95 69.0699C876.88 84.7599 861.9 94.8299 843 94.4699C827.09 94.1899 817.21 89.0699 806.39 81.5299C807.62 76.4799 808.87 71.4299 810.15 66.3899C810.47 66.3899 810.8 66.3799 811.12 66.3699C818.52 79.6999 831.05 91.5099 848.56 91.9499C859.93 92.2399 869.83 85.5199 871.41 77.2799C876.68 48.8099 816.06 56.3899 815.37 23.9099C815.15 13.2799 824.66 -0.450107 848.88 0.049893C860.44 0.319893 872.75 7.22992 881.05 13.8299V13.8499Z" fill="#EDEDED"/>
<path d="M998.3 64.5798C992.72 89.9998 966.68 106.12 940.68 102.42C914.69 98.6297 894.37 75.8297 896.19 49.8697C898.01 23.8197 924.42 4.56974 954.15 8.87974C983.88 13.1397 1003.91 39.0798 998.29 64.5898L998.3 64.5798ZM986.91 51.2798C983.82 27.0198 964.42 6.40976 938.58 9.95976C912.77 13.5998 903.34 37.9497 908.71 61.7297C914.17 85.7297 931.62 104.42 954.71 101.36C977.82 98.3697 990.06 75.7598 986.9 51.2798H986.91Z" fill="#EDEDED"/>
<path d="M1114.55 48.8799C1114.55 48.8799 1114.3 49.6299 1114.21 49.8799C1108.74 50.3699 1102.31 55.4899 1100.53 60.8799C1092.52 85.1099 1084.52 109.34 1076.51 133.58C1075.87 133.37 1075.22 133.16 1074.58 132.94C1062.47 100.77 1048.08 68.7799 1031.41 37.2299C1026.39 58.1499 1021.37 79.0799 1016.36 99.9999C1015.05 105.52 1017.38 113.27 1021.28 116.57C1021.21 116.82 1021.06 117.47 1021.05 117.47C1015.16 115.99 1009.26 114.58 1003.34 113.23C1003.34 113.23 1003.49 112.59 1003.54 112.33C1008.5 111.15 1014.09 105.3 1015.42 99.7799C1020.5 78.4699 1025.59 57.1499 1030.67 35.8399C1028.42 31.5899 1026.13 27.3599 1023.8 23.1299C1028.74 24.2499 1033.68 25.4199 1038.6 26.6199C1054.68 56.5699 1068.7 86.9099 1080.68 117.44C1086.92 98.4599 1093.16 79.4899 1099.4 60.5099C1101.19 55.1199 1099.05 47.1899 1094.95 43.5399C1095.03 43.2899 1095.27 42.5299 1095.27 42.5299C1101.71 44.5699 1108.14 46.6899 1114.55 48.8799Z" fill="#EDEDED"/>
<path d="M29.74 625.96H8.28998V591.57H10.15V624.24H29.74V625.96Z" fill="#EDEDED"/>
<path d="M37.14 593.34C37.14 594.36 36.74 595.42 35.95 596.51C35.16 597.6 34.08 598.56 32.72 599.39L32.16 598.55C34.24 597.22 35.51 595.74 35.98 594.13C35.64 594.47 35.2 594.64 34.68 594.64C34.25 594.64 33.86 594.48 33.52 594.15C33.18 593.82 33.01 593.41 33.01 592.92C33.01 592.36 33.2 591.9 33.59 591.52C33.98 591.14 34.47 590.96 35.06 590.96C35.65 590.96 36.15 591.19 36.55 591.63C36.95 592.08 37.16 592.65 37.16 593.33L37.14 593.34Z" fill="#EDEDED"/>
<path d="M68.5 625.96H47.89V591.57H68.32V593.29H49.75V607.72H67.15V609.44H49.75V624.24H68.5V625.96ZM58.49 588.82H56.95L59.74 581.56H62.21L58.49 588.82Z" fill="#EDEDED"/>
<path d="M101.07 625.96H79.62V591.57H81.48V624.24H101.07V625.96Z" fill="#EDEDED"/>
<path d="M131.14 625.96H110.52V591.57H130.95V593.29H112.38V607.72H129.78V609.44H112.38V624.24H131.13V625.96H131.14ZM121.13 588.82H119.59L122.38 581.56H124.85L121.13 588.82Z" fill="#EDEDED"/>
<path d="M156.64 626.47C151.55 626.47 147.36 624.8 144.08 621.44C140.76 618.06 139.1 613.84 139.1 608.78C139.1 603.72 140.84 599.38 144.31 596.03C147.78 592.65 151.99 590.96 156.92 590.96C159.74 590.96 162.46 591.55 165.06 592.73C167.67 593.91 169.73 595.44 171.25 597.34L169.95 598.55C168.58 596.78 166.71 595.36 164.32 594.27C161.99 593.22 159.53 592.69 156.92 592.69C152.39 592.69 148.59 594.23 145.52 597.3C142.48 600.4 140.96 604.23 140.96 608.79C140.96 613.35 142.43 617.2 145.38 620.24C148.36 623.25 152.11 624.75 156.64 624.75C161.85 624.75 166.44 622.7 170.41 618.61V610H155.38V608.28H172.22V619.17C168 624.04 162.8 626.48 156.63 626.48L156.64 626.47Z" fill="#EDEDED"/>
<path d="M207.27 625.96H205.27L200.94 614.7H185.54L181.16 625.96H179.16L192.66 591.57H193.82L207.27 625.96ZM200.33 612.97L193.21 594.68L186.09 612.97H200.33Z" fill="#EDEDED"/>
<path d="M240.77 622V591.57H242.63V625.96H241.51L218.71 595.85V625.96H216.85V591.57H217.78L240.77 622Z" fill="#EDEDED"/>
<path d="M271.48 626.47C266.52 626.47 262.34 624.83 258.96 621.54C255.55 618.22 253.84 614 253.84 608.88C253.84 603.76 255.56 599.39 259.01 596.04C262.48 592.66 266.67 590.97 271.57 590.97C274.73 590.97 277.65 591.68 280.32 593.11C283.05 594.54 285.13 596.38 286.56 598.65L285.12 599.53C283.85 597.48 281.99 595.84 279.54 594.6C277.06 593.33 274.39 592.69 271.54 592.69C267.04 592.69 263.27 594.21 260.23 597.25C257.22 600.26 255.72 604.09 255.72 608.74C255.72 613.39 257.21 617.23 260.19 620.23C263.2 623.24 266.97 624.74 271.5 624.74C274.26 624.74 276.86 624.15 279.29 622.97C281.73 621.79 283.7 620.16 285.22 618.08L286.52 619.06C284.78 621.36 282.6 623.16 279.98 624.48C277.36 625.8 274.53 626.46 271.49 626.46L271.48 626.47Z" fill="#EDEDED"/>
<path d="M317.51 625.96H296.89V591.57H317.32V593.29H298.75V607.72H316.15V609.44H298.75V624.24H317.5V625.96H317.51Z" fill="#EDEDED"/>
<path d="M367.9 622V591.57H369.76V625.96H368.64L345.84 595.85V625.96H343.98V591.57H344.91L367.9 622Z" fill="#EDEDED"/>
<path d="M407.41 625.96H405.41L401.08 614.7H385.68L381.3 625.96H379.3L392.8 591.57H393.96L407.41 625.96ZM400.48 612.97L393.36 594.68L386.24 612.97H400.48Z" fill="#EDEDED"/>
<path d="M420.25 625.96V593.29H409.69V591.57H432.63V593.29H422.11V625.96H420.25Z" fill="#EDEDED"/>
<path d="M441.71 614.97V591.56H443.57V614.78C443.57 617.91 444.39 620.35 446.04 622.09C447.69 623.83 449.96 624.7 452.88 624.7C455.8 624.7 458.07 623.83 459.7 622.09C461.33 620.35 462.14 617.92 462.14 614.78V591.56H464V614.97C464 618.54 462.99 621.38 460.97 623.49C458.95 625.54 456.25 626.56 452.87 626.56C449.49 626.56 446.77 625.54 444.73 623.49C442.71 621.38 441.71 618.54 441.71 614.97Z" fill="#EDEDED"/>
<path d="M489.26 610.97L498.05 625.95H495.91L487.35 611.15C487.19 611.18 486.85 611.2 486.33 611.2H479.12V625.95H477.26V591.56H486.94C490.51 591.56 493.22 592.52 495.08 594.44C496.97 596.33 497.92 598.64 497.92 601.37C497.92 603.67 497.18 605.71 495.69 607.51C494.26 609.28 492.12 610.43 489.27 610.95L489.26 610.97ZM479.12 593.29V609.48H486.43C489.41 609.48 491.76 608.74 493.48 607.25C495.2 605.76 496.06 603.79 496.06 601.34C496.06 598.89 495.23 596.94 493.57 595.48C491.91 594.02 489.7 593.29 486.94 593.29H479.12Z" fill="#EDEDED"/>
<path d="M529.98 625.96H509.36V591.57H529.79V593.29H511.22V607.72H528.62V609.44H511.22V624.24H529.97V625.96H529.98Z" fill="#EDEDED"/>
<path d="M562.56 625.96H541.11V591.57H542.97V624.24H562.56V625.96Z" fill="#EDEDED"/>
<path d="M593.45 625.96H572V591.57H573.86V624.24H593.45V625.96Z" fill="#EDEDED"/>
<path d="M623.51 625.96H602.89V591.57H623.32V593.29H604.75V607.72H622.15V609.44H604.75V624.24H623.5V625.96H623.51Z" fill="#EDEDED"/>
<path d="M655.63 609.03H1651.96V610.57H655.63V609.03Z" fill="#EDEDED"/>
<path d="M212.53 494.17H158.22V491.7C167.39 482.53 164.57 470.19 154.69 444.45L137.41 399.67H49.96L40.44 426.47C29.16 458.56 27.39 475.84 42.2 491.71V494.18H0.589996V491.71C15.75 475.84 25.98 459.62 37.62 426.47L90.51 277.66L78.87 247.33H106.73L175.49 426.47C189.95 461.73 199.12 475.84 212.52 491.71V494.18L212.53 494.17ZM136.36 396.84L91.93 281.53L51.02 396.84H136.36Z" fill="#EDEDED"/>
<path d="M416.7 319.61C416.7 369.33 370.5 391.55 301.04 391.55H283.76V470.89C283.76 483.23 286.23 488.52 291.52 491.69V494.16H247.79V491.69C253.43 488.52 255.9 483.23 255.9 470.89V270.95C255.9 258.26 253.43 253.32 247.79 250.14V247.32H301.04C370.51 247.32 416.7 269.54 416.7 319.61ZM388.84 319.61C388.84 278 364.51 250.14 301.03 250.14H283.75V388.72H301.03C364.5 388.72 388.84 360.86 388.84 319.6V319.61Z" fill="#EDEDED"/>
<path d="M908.62 451.5L900.86 494.17H753.81V491.7C759.45 488.53 761.92 483.24 761.92 470.9V270.96C761.92 258.27 759.45 253.33 753.81 250.15V247.33H797.54V250.15C792.25 253.32 789.78 258.26 789.78 270.96V491.71H821.87C861.01 491.71 889.93 471.61 906.5 450.1L908.62 451.51V451.5Z" fill="#EDEDED"/>
<path d="M1102.21 451.5L1094.45 494.17H947.4V491.7C953.04 488.53 955.51 483.24 955.51 470.9V270.96C955.51 258.27 953.04 253.33 947.4 250.15V247.33H991.13V250.15C985.84 253.32 983.37 258.26 983.37 270.96V491.71H1015.46C1054.6 491.71 1083.52 471.61 1100.09 450.1L1102.21 451.51V451.5Z" fill="#EDEDED"/>
<path d="M1176.61 270.95V470.89C1176.61 483.23 1179.08 488.52 1184.72 491.69V494.16H1140.99V491.69C1146.28 488.52 1148.75 483.23 1148.75 470.89V270.95C1148.75 258.61 1146.28 253.32 1140.99 250.14V247.32H1184.72V250.14C1179.08 253.31 1176.61 258.6 1176.61 270.95Z" fill="#EDEDED"/>
<path d="M1450.95 247.32V250.14C1439.31 256.13 1428.73 274.47 1428.73 289.63V494.16H1423.44L1255.59 279.41V451.85C1255.59 467.01 1266.17 485.7 1278.16 491.7V494.17H1230.55V491.7C1242.54 485.71 1253.12 467.02 1253.12 451.85V276.24L1230.55 247.32H1266.17L1425.91 449.73V289.64C1425.91 274.48 1415.33 256.14 1403.69 250.15V247.33H1450.94L1450.95 247.32Z" fill="#EDEDED"/>
<path d="M1647.72 451.5L1639.96 494.17H1496.79V491.7C1502.08 488.53 1504.55 483.24 1504.55 470.9V270.96C1504.55 258.62 1502.08 253.33 1496.79 250.15V247.33H1628.67L1636.07 286.47L1634.31 287.88C1618.09 269.54 1596.23 250.15 1557.08 250.15H1532.4V354.18L1621.26 346.42V364.4L1532.4 357V491.71H1560.96C1599.75 491.71 1629.02 471.61 1645.59 450.1L1647.71 451.51L1647.72 451.5Z" fill="#EDEDED"/>
<path d="M711.5 370.04C711.5 439.51 653.32 496.28 583.49 496.28C513.66 496.28 455.48 439.51 455.48 370.04C455.48 300.57 513.66 243.8 583.49 243.8C653.32 243.8 711.5 300.22 711.5 370.04ZM677.65 341.12C658.61 279.06 606.42 234.27 547.53 252.26C488.64 270.24 470.3 336.54 489.35 398.6C508.39 461.02 560.58 505.8 619.47 487.82C678.36 469.84 696.7 403.54 677.65 341.12Z" fill="#EDEDED"/>
<path d="M567.34 357.16C570.34 359.84 572.09 362.41 573.06 363.85C575.89 368.04 577.84 372.72 579.02 377.84C579.67 380.66 580.34 383.47 581 386.28C582.03 371.99 578.55 358.82 571.48 346.56C570.48 344.82 569.02 343.36 567 342.7C566.68 342.6 562.9 341.35 560.57 343.62C558.89 345.25 558.78 347.91 559.35 349.76C560.31 352.9 563.09 353.34 567.35 357.15L567.34 357.16Z" fill="#EDEDED"/>
<path d="M566.05 375.71C568.73 377 568.63 376.87 569.46 377.33C574.96 380.42 577.89 385.48 579.52 389.42C579.39 388.7 579.19 387.63 578.93 386.33C578.75 385.42 578.58 384.58 578.51 384.27C578.51 384.27 577.92 381.52 576.59 378.3C575.59 375.88 571.08 366.39 562.55 361.04C559.13 358.89 556.86 358.54 555.21 359.24C555.03 359.32 554.55 359.54 554.05 359.98C552.26 361.57 551.94 364.68 552.58 366.78C553.44 369.58 557.65 371.66 566.04 375.7L566.05 375.71Z" fill="#EDEDED"/>
<path d="M585.18 358.78C589.3 341.48 585.03 327.85 585.03 327.85C584.66 326.55 583.74 323.61 582.69 323.65C581.75 323.69 581.21 326.15 580.91 327.08C576.41 341.07 579.47 354.73 583.21 368.48C583.86 365.24 584.41 361.98 585.18 358.78Z" fill="#EDEDED"/>
<path d="M614.69 383.64C614.68 383.46 614.6 382.49 614.03 381.52C612.79 379.39 610.14 378.79 609.24 378.58C601.34 376.79 589.92 386.99 587.3 391.43C587.21 391.57 586.31 393.06 585.21 395.11C585.21 395.11 583.8 398.08 583 399.2C582.99 399.22 582.95 399.27 582.9 399.27C582.85 399.27 582.82 399.23 582.81 399.22C582.18 398.48 580.62 395.15 580.62 395.15C580.25 394.38 579.74 393.51 578.71 391.77C578.61 391.61 578.55 391.5 578.53 391.47C575.91 387.03 564.49 376.83 556.59 378.62C555.68 378.83 553.04 379.42 551.8 381.56C551.23 382.54 551.15 383.5 551.14 383.68C551.14 383.68 551.02 385.35 552.1 387.05C553.48 389.21 557.86 390.12 562.93 388.85C566.11 388.36 568.36 388.9 569.74 389.42C573.92 390.98 576.49 394.67 581.12 401.34C581.89 402.45 582.51 403.39 582.92 404.03C582.93 404.01 582.94 403.99 582.95 403.98C583.36 403.34 583.98 402.4 584.75 401.3C589.38 394.63 591.95 390.94 596.13 389.38C597.51 388.86 599.77 388.32 602.94 388.81C608.01 390.08 612.39 389.17 613.77 387.01C614.85 385.31 614.73 383.64 614.73 383.64H614.69Z" fill="#EDEDED"/>
<path d="M584.8 386.24C585.46 383.43 586.13 380.62 586.78 377.8C587.96 372.67 589.91 368 592.74 363.81C593.71 362.37 595.46 359.8 598.46 357.12C602.72 353.31 605.5 352.87 606.46 349.73C607.02 347.88 606.91 345.22 605.24 343.59C602.91 341.32 599.12 342.56 598.81 342.67C596.79 343.32 595.34 344.79 594.33 346.53C587.26 358.79 583.78 371.96 584.81 386.25L584.8 386.24Z" fill="#EDEDED"/>
<path d="M589.2 378.26C587.87 381.48 587.28 384.23 587.28 384.23C587.22 384.53 587.04 385.38 586.86 386.29C586.6 387.59 586.41 388.65 586.27 389.38C587.9 385.44 590.83 380.38 596.33 377.29C597.16 376.83 597.06 376.96 599.74 375.67C608.13 371.63 612.34 369.55 613.2 366.75C613.84 364.66 613.52 361.55 611.73 359.95C611.23 359.51 610.75 359.28 610.57 359.21C608.92 358.51 606.65 358.86 603.23 361.01C594.7 366.36 590.19 375.85 589.19 378.27L589.2 378.26Z" fill="#EDEDED"/>
<path d="M587.51 405.06C585.41 405.56 584.14 407.05 582.9 409.17C581.66 407.05 580.38 405.56 578.29 405.06C577.03 404.76 576.09 405.36 575.65 406.37C575.22 407.36 576.1 408.04 576.93 408.26C579.75 409.02 581.62 410.75 582.78 413.67C582.82 413.77 582.86 413.87 582.9 413.98C582.94 413.88 582.98 413.78 583.02 413.67C584.19 410.75 586.05 409.02 588.87 408.26C589.7 408.04 590.58 407.36 590.15 406.37C589.71 405.36 588.77 404.76 587.51 405.06Z" fill="#EDEDED"/>
</svg>
