<svg width="1674" height="232" viewBox="0 0 1674 232" fill="none" xmlns="http://www.w3.org/2000/svg">
<path d="M422.67 35.8204V121.99C422.67 127.31 423.73 129.59 426.17 130.96V132.02H407.33V130.96C409.61 129.59 410.83 127.31 410.83 121.99V30.2004L368.88 102.85H367.51L324.04 36.5904V113.79C324.04 120.33 328.6 128.38 333.61 130.96V132.02H313.25V130.96C318.26 128.38 322.83 120.32 322.83 113.79V35.0704L315.99 25.6504H329.67L373.29 92.9803L412.04 25.6504H426.17V26.8704C423.74 28.2404 422.67 30.3704 422.67 35.8404V35.8204Z" fill="#EDEDED"/>
<path d="M532.7 132.03H509.29V130.97C513.24 127.02 512.03 121.7 507.77 110.6L500.32 91.3004H462.63L458.53 102.85C453.67 116.68 452.91 124.13 459.29 130.97V132.03H441.36V130.97C447.9 124.13 452.3 117.14 457.32 102.85L480.12 38.7203L475.11 25.6504H487.12L516.75 102.86C522.98 118.06 526.93 124.14 532.71 130.98V132.04L532.7 132.03ZM499.87 90.0803L480.72 40.3804L463.09 90.0803H499.87Z" fill="#EDEDED"/>
<path d="M563.24 35.8199V121.99C563.24 127.31 564.3 129.59 566.74 130.96V132.02H547.89V130.96C550.17 129.59 551.23 127.31 551.23 121.99V35.8199C551.23 30.4999 550.17 28.2199 547.89 26.8499V25.6299H566.74V26.8499C564.31 28.2199 563.24 30.4999 563.24 35.8199Z" fill="#EDEDED"/>
<path d="M663.7 38.4101L659.14 54.2201H658.08C649.42 33.8501 638.32 26.1001 626.32 26.1001C611.27 26.1001 602.61 34.6101 601.7 43.7301C598.81 74.1301 664.01 64.1001 664.01 102.09C664.01 120.17 647.75 132.94 626.17 132.94C608.08 132.94 596.84 126.86 584.98 117.89L589.54 100.56H590.6C598.35 116.06 612.48 129.89 632.39 129.89C645.31 129.89 656.1 121.53 657.31 111.96C661.26 79.5901 595.91 89.9202 595.91 51.7802C595.91 39.4702 605.79 24.1201 630.26 24.1201C641.96 24.1201 654.73 31.4101 663.69 38.4101H663.7Z" fill="#EDEDED"/>
<path d="M792.57 78.5302C792.57 108.47 767.49 132.94 737.4 132.94C707.31 132.94 682.23 108.47 682.23 78.5302C682.23 48.5902 707.31 24.1201 737.4 24.1201C767.49 24.1201 792.57 48.4402 792.57 78.5302ZM777.98 66.0701C769.77 39.3201 747.28 20.0201 721.9 27.7701C696.52 35.5201 688.62 64.0901 696.82 90.8401C705.03 117.74 727.52 137.04 752.9 129.29C778.28 121.54 786.18 92.9701 777.98 66.0701Z" fill="#EDEDED"/>
<path d="M904.27 25.6401V26.8601C899.26 29.4401 894.69 37.3501 894.69 43.8801V132.03H892.41L820.07 39.4801V113.8C820.07 120.34 824.63 128.39 829.8 130.97V132.03H809.28V130.97C814.45 128.39 819.01 120.33 819.01 113.8V38.1201L809.28 25.6601H824.63L893.48 112.9V43.9001C893.48 37.3601 888.92 29.4601 883.91 26.8801V25.6601H904.27V25.6401Z" fill="#EDEDED"/>
<path d="M1053.36 132.03H1029.96V130.97C1033.91 127.02 1032.7 121.7 1028.44 110.6L1020.99 91.3004H983.3L979.2 102.85C974.34 116.68 973.58 124.13 979.96 130.97V132.03H962.03V130.97C968.56 124.13 972.97 117.14 977.99 102.85L1000.79 38.7203L995.77 25.6504H1007.78L1037.42 102.86C1043.65 118.06 1047.6 124.14 1053.38 130.98V132.04L1053.36 132.03ZM1020.53 90.0803L1001.38 40.3804L983.75 90.0803H1020.53Z" fill="#EDEDED"/>
<path d="M1141.35 56.8001C1141.35 78.2301 1121.44 87.8002 1091.5 87.8002H1084.05V122C1084.05 127.32 1085.11 129.6 1087.39 130.97V132.03H1068.54V130.97C1070.97 129.6 1072.04 127.32 1072.04 122V35.8301C1072.04 30.3601 1070.98 28.2301 1068.54 26.8601V25.6401H1091.49C1121.43 25.6401 1141.34 35.2201 1141.34 56.8001H1141.35ZM1129.34 56.8001C1129.34 38.8701 1118.85 26.8601 1091.5 26.8601H1084.05V86.5901H1091.5C1118.86 86.5901 1129.34 74.5801 1129.34 56.8001Z" fill="#EDEDED"/>
<path d="M1268.4 78.5302C1268.4 108.47 1243.32 132.94 1213.23 132.94C1183.14 132.94 1158.06 108.47 1158.06 78.5302C1158.06 48.5902 1183.14 24.1201 1213.23 24.1201C1243.32 24.1201 1268.4 48.4402 1268.4 78.5302ZM1253.81 66.0701C1245.6 39.3201 1223.11 20.0201 1197.73 27.7701C1172.35 35.5201 1164.45 64.0901 1172.65 90.8401C1180.86 117.74 1203.35 137.04 1228.73 129.29C1254.11 121.54 1262.01 92.9701 1253.81 66.0701Z" fill="#EDEDED"/>
<path d="M1353.35 113.64L1350.01 132.03H1286.63V130.97C1289.06 129.6 1290.12 127.32 1290.12 122V35.8301C1290.12 30.3601 1289.06 28.2301 1286.63 26.8601V25.6401H1305.47V26.8601C1303.19 28.2301 1302.13 30.3601 1302.13 35.8301V130.97H1315.96C1332.83 130.97 1345.29 122.31 1352.43 113.04L1353.34 113.65L1353.35 113.64Z" fill="#EDEDED"/>
<path d="M1436.78 113.64L1433.44 132.03H1370.06V130.97C1372.49 129.6 1373.55 127.32 1373.55 122V35.8301C1373.55 30.3601 1372.49 28.2301 1370.06 26.8601V25.6401H1388.9V26.8601C1386.62 28.2301 1385.56 30.3601 1385.56 35.8301V130.97H1399.39C1416.26 130.97 1428.72 122.31 1435.86 113.04L1436.77 113.65L1436.78 113.64Z" fill="#EDEDED"/>
<path d="M1468.85 35.8199V121.99C1468.85 127.31 1469.91 129.59 1472.34 130.96V132.02H1453.5V130.96C1455.78 129.59 1456.84 127.31 1456.84 121.99V35.8199C1456.84 30.4999 1455.78 28.2199 1453.5 26.8499V25.6299H1472.34V26.8499C1469.91 28.2199 1468.85 30.4999 1468.85 35.8199Z" fill="#EDEDED"/>
<path d="M1587.09 25.6401V26.8601C1582.07 29.4401 1577.52 37.3501 1577.52 43.8801V132.03H1575.24L1502.9 39.4801V113.8C1502.9 120.34 1507.46 128.39 1512.63 130.97V132.03H1492.11V130.97C1497.28 128.39 1501.84 120.33 1501.84 113.8V38.1201L1492.11 25.6601H1507.46L1576.31 112.9V43.9001C1576.31 37.3601 1571.75 29.4601 1566.74 26.8801V25.6601H1587.11L1587.09 25.6401Z" fill="#EDEDED"/>
<path d="M1671.89 113.64L1668.55 132.03H1606.85V130.97C1609.13 129.6 1610.19 127.32 1610.19 122V35.8301C1610.19 30.5101 1609.13 28.2301 1606.85 26.8601V25.6401H1663.69L1666.88 42.5101L1666.12 43.1201C1659.13 35.2201 1649.71 26.8601 1632.84 26.8601H1622.2V71.6901L1660.5 68.3501V76.1001L1622.2 72.9102V130.97H1634.51C1651.23 130.97 1663.84 122.31 1670.98 113.04L1671.89 113.65V113.64Z" fill="#EDEDED"/>
<path d="M233.51 116.1C233.51 179.46 180.44 231.25 116.76 231.25C53.0798 231.25 0.00976562 179.47 0.00976562 116.1C0.00976562 52.7302 53.0798 0.950195 116.76 0.950195C180.44 0.950195 233.51 52.4102 233.51 116.1ZM202.64 89.7302C185.27 33.1202 137.67 -7.72982 83.9598 8.68018C30.2498 25.0802 13.5198 85.5502 30.8898 142.16C48.2598 199.09 95.8598 239.94 149.57 223.53C203.28 207.13 220.01 146.66 202.64 89.7302Z" fill="#EDEDED"/>
<path d="M334 198.75H320V176.3H321.21V197.62H334V198.74V198.75Z" fill="#EDEDED"/>
<path d="M338.83 177.45C338.83 178.12 338.57 178.81 338.06 179.52C337.54 180.23 336.84 180.86 335.95 181.4L335.59 180.85C336.95 179.98 337.78 179.02 338.08 177.96C337.86 178.18 337.57 178.29 337.23 178.29C336.95 178.29 336.69 178.18 336.47 177.97C336.25 177.76 336.14 177.49 336.14 177.16C336.14 176.8 336.27 176.49 336.52 176.25C336.77 176.01 337.09 175.89 337.48 175.89C337.87 175.89 338.19 176.04 338.45 176.33C338.71 176.62 338.84 176.99 338.84 177.44L338.83 177.45Z" fill="#EDEDED"/>
<path d="M359.3 198.75H345.84V176.3H359.17V177.42H347.05V186.84H358.41V187.96H347.05V197.62H359.29V198.74L359.3 198.75ZM352.77 174.51H351.77L353.59 169.77H355.2L352.77 174.51Z" fill="#EDEDED"/>
<path d="M380.57 198.75H366.57V176.3H367.78V197.62H380.57V198.74V198.75Z" fill="#EDEDED"/>
<path d="M400.19 198.75H386.73V176.3H400.06V177.42H387.94V186.84H399.3V187.96H387.94V197.62H400.18V198.74L400.19 198.75ZM393.66 174.51H392.66L394.48 169.77H396.09L393.66 174.51Z" fill="#EDEDED"/>
<path d="M416.83 199.08C413.51 199.08 410.78 197.99 408.63 195.8C406.46 193.59 405.38 190.84 405.38 187.54C405.38 184.24 406.51 181.41 408.78 179.22C411.05 177.01 413.79 175.91 417.01 175.91C418.85 175.91 420.62 176.29 422.33 177.06C424.04 177.83 425.38 178.83 426.37 180.07L425.52 180.86C424.63 179.71 423.4 178.77 421.84 178.07C420.32 177.38 418.71 177.04 417.01 177.04C414.05 177.04 411.57 178.04 409.57 180.05C407.58 182.08 406.59 184.58 406.59 187.55C406.59 190.52 407.55 193.04 409.48 195.02C411.42 196.98 413.87 197.97 416.83 197.97C420.23 197.97 423.23 196.63 425.82 193.96V188.34H416.01V187.22H427.01V194.33C424.26 197.51 420.86 199.1 416.83 199.1V199.08Z" fill="#EDEDED"/>
<path d="M449.88 198.75H448.57L445.75 191.4H435.7L432.84 198.75H431.53L440.34 176.3H441.1L449.88 198.75ZM445.35 190.27L440.7 178.33L436.05 190.27H445.34H445.35Z" fill="#EDEDED"/>
<path d="M471.75 196.16V176.3H472.96V198.75H472.23L457.35 179.1V198.75H456.14V176.3H456.75L471.75 196.16Z" fill="#EDEDED"/>
<path d="M491.79 199.08C488.55 199.08 485.83 198.01 483.62 195.86C481.39 193.69 480.28 190.94 480.28 187.6C480.28 184.26 481.4 181.4 483.65 179.22C485.92 177.01 488.65 175.91 491.85 175.91C493.92 175.91 495.82 176.38 497.56 177.31C499.34 178.24 500.7 179.45 501.63 180.92L500.69 181.5C499.86 180.16 498.64 179.09 497.05 178.28C495.43 177.45 493.69 177.03 491.83 177.03C488.89 177.03 486.43 178.02 484.45 180.01C482.49 181.97 481.5 184.47 481.5 187.51C481.5 190.55 482.47 193.05 484.42 195.01C486.38 196.97 488.84 197.96 491.8 197.96C493.6 197.96 495.3 197.58 496.89 196.81C498.48 196.04 499.77 194.98 500.76 193.62L501.61 194.26C500.48 195.76 499.05 196.94 497.34 197.8C495.63 198.66 493.78 199.09 491.8 199.09L491.79 199.08Z" fill="#EDEDED"/>
<path d="M521.83 198.75H508.37V176.3H521.7V177.42H509.58V186.84H520.94V187.96H509.58V197.62H521.82V198.74L521.83 198.75Z" fill="#EDEDED"/>
<path d="M554.73 196.16V176.3H555.94V198.75H555.21L540.33 179.1V198.75H539.12V176.3H539.73L554.73 196.16Z" fill="#EDEDED"/>
<path d="M580.51 198.75H579.2L576.38 191.4H566.33L563.47 198.75H562.16L570.97 176.3H571.73L580.51 198.75ZM575.99 190.27L571.34 178.33L566.69 190.27H575.98H575.99Z" fill="#EDEDED"/>
<path d="M588.9 198.75V177.43H582V176.31H596.97V177.43H590.11V198.75H588.9Z" fill="#EDEDED"/>
<path d="M602.9 191.58V176.3H604.11V191.46C604.11 193.51 604.65 195.1 605.72 196.23C606.79 197.36 608.28 197.93 610.18 197.93C612.08 197.93 613.57 197.36 614.63 196.23C615.69 195.1 616.22 193.51 616.22 191.46V176.3H617.43V191.58C617.43 193.91 616.77 195.76 615.46 197.14C614.14 198.48 612.38 199.14 610.17 199.14C607.96 199.14 606.19 198.47 604.85 197.14C603.53 195.76 602.88 193.91 602.88 191.58H602.9Z" fill="#EDEDED"/>
<path d="M633.94 188.97L639.68 198.75H638.28L632.69 189.09C632.59 189.11 632.37 189.12 632.02 189.12H627.31V198.75H626.1V176.3H632.42C634.75 176.3 636.52 176.93 637.74 178.18C638.98 179.42 639.59 180.92 639.59 182.71C639.59 184.21 639.1 185.54 638.13 186.72C637.2 187.87 635.8 188.62 633.94 188.97ZM627.32 177.42V187.99H632.09C634.03 187.99 635.57 187.5 636.69 186.53C637.81 185.56 638.38 184.27 638.38 182.67C638.38 181.07 637.84 179.79 636.76 178.84C635.68 177.89 634.23 177.41 632.43 177.41H627.33L627.32 177.42Z" fill="#EDEDED"/>
<path d="M660.52 198.75H647.06V176.3H660.39V177.42H648.27V186.84H659.63V187.96H648.27V197.62H660.51V198.74L660.52 198.75Z" fill="#EDEDED"/>
<path d="M681.78 198.75H667.78V176.3H668.99V197.62H681.78V198.74V198.75Z" fill="#EDEDED"/>
<path d="M701.95 198.75H687.95V176.3H689.16V197.62H701.95V198.74V198.75Z" fill="#EDEDED"/>
<path d="M721.57 198.75H708.11V176.3H721.44V177.42H709.32V186.84H720.68V187.96H709.32V197.62H721.56V198.74L721.57 198.75Z" fill="#EDEDED"/>
<path d="M1673.47 187.7H742.53V188.7H1673.47V187.7Z" fill="#EDEDED"/>
<path d="M99.8296 102.65C102.5 105.04 104.06 107.33 104.92 108.6C107.44 112.33 109.18 116.49 110.23 121.06C110.81 123.57 111.4 126.07 111.99 128.57C112.91 115.85 109.81 104.12 103.51 93.2103C102.62 91.6603 101.32 90.3604 99.5196 89.7804C99.2396 89.6904 95.8696 88.5803 93.7896 90.6003C92.2996 92.0503 92.1996 94.4204 92.6996 96.0604C93.5496 98.8504 96.0296 99.2504 99.8196 102.64L99.8296 102.65Z" fill="#EDEDED"/>
<path d="M98.68 119.17C101.06 120.32 100.98 120.2 101.71 120.61C106.6 123.36 109.21 127.86 110.66 131.37C110.54 130.73 110.37 129.78 110.14 128.62C109.98 127.81 109.83 127.06 109.77 126.79C109.77 126.79 109.25 124.34 108.06 121.48C107.17 119.33 103.16 110.88 95.56 106.12C92.52 104.21 90.49 103.89 89.03 104.52C88.87 104.59 88.44 104.78 88 105.18C86.41 106.6 86.12 109.37 86.69 111.23C87.45 113.73 91.2 115.58 98.67 119.17H98.68Z" fill="#EDEDED"/>
<path d="M115.71 104.1C119.38 88.7001 115.57 76.57 115.57 76.57C115.24 75.41 114.42 72.79 113.49 72.83C112.65 72.86 112.17 75.0601 111.91 75.8801C107.9 88.3401 110.63 100.49 113.96 112.74C114.54 109.86 115.03 106.96 115.71 104.1Z" fill="#EDEDED"/>
<path d="M141.98 126.23C141.97 126.07 141.9 125.21 141.39 124.34C140.28 122.44 137.93 121.91 137.12 121.73C130.09 120.14 119.92 129.22 117.59 133.17C117.51 133.3 116.71 134.62 115.73 136.44C115.73 136.44 114.47 139.08 113.77 140.08C113.76 140.1 113.72 140.14 113.68 140.14C113.64 140.14 113.61 140.1 113.6 140.09C113.04 139.43 111.65 136.47 111.65 136.47C111.32 135.78 110.87 135.01 109.95 133.46C109.86 133.31 109.81 133.22 109.79 133.19C107.45 129.24 97.2898 120.16 90.2598 121.75C89.4498 121.93 87.0998 122.47 85.9898 124.36C85.4798 125.23 85.4098 126.09 85.3998 126.25C85.3998 126.25 85.2898 127.74 86.2498 129.25C87.4798 131.17 91.3698 131.98 95.8898 130.85C98.7198 130.41 100.73 130.9 101.96 131.36C105.68 132.75 107.96 136.04 112.09 141.97C112.78 142.96 113.33 143.8 113.7 144.37C113.7 144.36 113.72 144.34 113.73 144.32C114.1 143.75 114.64 142.92 115.33 141.93C119.45 136 121.74 132.71 125.46 131.32C126.69 130.86 128.7 130.37 131.53 130.81C136.05 131.94 139.94 131.13 141.17 129.21C142.13 127.7 142.02 126.21 142.02 126.21L141.98 126.23Z" fill="#EDEDED"/>
<path d="M115.37 128.54C115.96 126.04 116.55 123.53 117.13 121.03C118.18 116.47 119.92 112.31 122.44 108.57C123.3 107.29 124.86 105 127.53 102.62C131.32 99.2298 133.8 98.8299 134.65 96.0399C135.15 94.3899 135.05 92.0298 133.56 90.5798C131.48 88.5598 128.12 89.6699 127.83 89.7599C126.04 90.3399 124.74 91.6498 123.84 93.1898C117.54 104.1 114.45 115.83 115.36 128.55L115.37 128.54Z" fill="#EDEDED"/>
<path d="M119.28 121.44C118.1 124.3 117.57 126.75 117.57 126.75C117.51 127.02 117.36 127.77 117.2 128.58C116.97 129.73 116.8 130.69 116.68 131.33C118.13 127.82 120.74 123.32 125.63 120.57C126.37 120.16 126.28 120.27 128.66 119.13C136.13 115.53 139.88 113.68 140.64 111.19C141.21 109.33 140.92 106.56 139.33 105.14C138.89 104.74 138.46 104.55 138.3 104.48C136.83 103.85 134.81 104.17 131.77 106.08C124.18 110.85 120.16 119.29 119.27 121.44H119.28Z" fill="#EDEDED"/>
<path d="M117.78 145.3C115.91 145.75 114.78 147.07 113.67 148.96C112.56 147.07 111.43 145.74 109.56 145.3C108.44 145.03 107.6 145.57 107.21 146.47C106.82 147.35 107.61 147.95 108.35 148.15C110.86 148.83 112.52 150.37 113.56 152.96C113.6 153.05 113.63 153.14 113.67 153.23C113.71 153.14 113.74 153.05 113.78 152.96C114.82 150.36 116.48 148.82 118.99 148.15C119.73 147.95 120.52 147.35 120.13 146.47C119.74 145.57 118.9 145.03 117.78 145.3Z" fill="#EDEDED"/>
</svg>
