<svg width="963" height="950" viewBox="0 0 963 950" fill="none" xmlns="http://www.w3.org/2000/svg">
<path d="M962.77 474.78C962.77 736.01 743.97 949.52 481.41 949.52C218.85 949.52 0.0499878 736.02 0.0499878 474.78C0.0499878 213.54 218.85 0.039978 481.41 0.039978C743.97 0.039978 962.77 212.21 962.77 474.78ZM835.46 366.04C763.85 132.65 567.59 -35.76 346.14 31.87C124.69 99.5 55.73 348.8 127.34 582.19C198.95 816.9 395.21 985.32 616.66 917.69C838.11 850.06 907.07 600.76 835.46 366.04Z" fill="#02302D"/>
<path d="M408.32 429.1C422.41 441.7 430.62 453.77 435.18 460.52C448.48 480.21 457.63 502.16 463.2 526.24C466.25 539.46 469.39 552.67 472.48 565.88C477.31 498.77 460.98 436.89 427.76 379.32C423.05 371.16 416.2 364.28 406.73 361.2C405.24 360.71 387.46 354.87 376.51 365.54C368.64 373.21 368.11 385.68 370.76 394.37C375.25 409.11 388.32 411.21 408.33 429.09L408.32 429.1Z" fill="#02302D"/>
<path d="M402.28 516.23C414.86 522.29 414.4 521.67 418.28 523.85C444.1 538.35 457.85 562.12 465.53 580.63C464.91 577.23 463.98 572.22 462.78 566.13C461.94 561.87 461.12 557.9 460.82 556.47C460.82 556.47 458.06 543.54 451.82 528.43C447.12 517.06 425.96 472.51 385.89 447.36C369.83 437.28 359.16 435.61 351.42 438.91C350.59 439.27 348.33 440.3 345.98 442.39C337.57 449.88 336.06 464.49 339.07 474.31C343.1 487.48 362.89 497.24 402.29 516.23H402.28Z" fill="#02302D"/>
<path d="M492.13 436.7C511.5 355.45 491.41 291.44 491.41 291.44C489.68 285.32 485.35 271.51 480.44 271.72C476.01 271.9 473.47 283.48 472.08 287.81C450.92 353.54 465.33 417.68 482.89 482.29C485.94 467.09 488.54 451.78 492.13 436.71V436.7Z" fill="#02302D"/>
<path d="M630.74 553.5C630.68 552.66 630.29 548.12 627.62 543.53C621.79 533.51 609.36 530.7 605.1 529.74C567.99 521.34 514.35 569.25 502.03 590.1C501.63 590.78 497.38 597.76 492.19 607.37C492.19 607.37 485.56 621.32 481.82 626.59C481.76 626.67 481.58 626.93 481.34 626.93C481.12 626.93 480.96 626.74 480.9 626.67C477.96 623.19 470.6 607.57 470.6 607.57C468.88 603.93 466.46 599.86 461.61 591.71C461.15 590.94 460.86 590.45 460.76 590.3C448.44 569.45 394.8 521.54 357.69 529.94C353.43 530.9 341.01 533.72 335.17 543.73C332.5 548.31 332.12 552.85 332.05 553.7C332.05 553.7 331.47 561.55 336.55 569.52C343.02 579.66 363.58 583.92 387.41 577.96C402.34 575.64 412.93 578.2 419.42 580.63C439.06 587.98 451.1 605.31 472.86 636.62C476.49 641.84 479.38 646.25 481.33 649.28C481.38 649.2 481.43 649.12 481.48 649.03C483.43 646.01 486.31 641.62 489.92 636.42C511.68 605.11 523.72 587.78 543.36 580.43C549.85 578 560.44 575.44 575.37 577.76C599.2 583.72 619.76 579.46 626.23 569.32C631.31 561.36 630.73 553.5 630.73 553.5H630.74Z" fill="#02302D"/>
<path d="M490.33 565.68C493.43 552.47 496.56 539.26 499.61 526.04C505.17 501.96 514.33 480.01 527.63 460.32C532.19 453.57 540.39 441.5 554.49 428.9C574.5 411.02 587.57 408.92 592.06 394.18C594.71 385.48 594.18 373.01 586.31 365.35C575.36 354.68 557.58 360.52 556.09 361.01C546.62 364.09 539.77 370.97 535.06 379.13C501.84 436.7 485.51 498.57 490.34 565.69L490.33 565.68Z" fill="#02302D"/>
<path d="M510.99 528.22C504.74 543.33 501.99 556.26 501.99 556.26C501.69 557.69 500.87 561.66 500.03 565.92C498.83 572.01 497.89 577.03 497.28 580.42C504.96 561.92 518.71 538.15 544.53 523.64C548.41 521.46 547.95 522.08 560.53 516.02C599.93 497.03 619.71 487.27 623.75 474.1C626.76 464.28 625.24 449.67 616.84 442.18C614.49 440.09 612.24 439.05 611.4 438.7C603.66 435.39 592.99 437.06 576.93 447.15C536.86 472.3 515.7 516.85 511 528.22H510.99Z" fill="#02302D"/>
<path d="M503.08 654.09C493.23 656.45 487.24 663.44 481.4 673.42C475.56 663.44 469.57 656.45 459.72 654.09C453.78 652.67 449.39 655.49 447.31 660.24C445.27 664.89 449.41 668.07 453.32 669.13C466.57 672.71 475.34 680.82 480.82 694.54V694.57C481.01 695.05 481.21 695.52 481.39 696.01C481.39 696.01 481.39 696.01 481.39 696V696.01C481.58 695.52 481.77 695.05 481.96 694.57C481.96 694.57 481.96 694.55 481.96 694.54C487.44 680.82 496.21 672.71 509.46 669.13C513.37 668.07 517.51 664.89 515.47 660.24C513.39 655.49 509 652.66 503.06 654.09H503.08Z" fill="#02302D"/>
</svg>
