<svg width="1361" height="176" viewBox="0 0 1361 176" fill="none" xmlns="http://www.w3.org/2000/svg">
<path d="M109.42 11.7V97.87C109.42 103.19 110.48 105.47 112.92 106.84V107.9H94.08V106.84C96.36 105.47 97.58 103.19 97.58 97.87V6.08002L55.63 78.73H54.26L10.79 12.47V89.67C10.79 96.21 15.35 104.26 20.36 106.84V107.9H0V106.84C5.01 104.26 9.57001 96.2 9.57001 89.67V10.95L2.73001 1.53003H16.41L60.03 68.86L98.78 1.53003H112.91V2.75C110.48 4.12 109.41 6.25003 109.41 11.72L109.42 11.7Z" fill="#02302D"/>
<path d="M219.45 107.91H196.04V106.85C199.99 102.9 198.78 97.58 194.52 86.48L187.07 67.1801H149.38L145.28 78.73C140.42 92.56 139.66 100.01 146.04 106.85V107.91H128.11V106.85C134.64 100.01 139.05 93.02 144.07 78.73L166.87 14.6L161.86 1.53003H173.87L203.51 78.74C209.74 93.94 213.69 100.02 219.47 106.86V107.92L219.45 107.91ZM186.62 65.96L167.47 16.26L149.84 65.96H186.62Z" fill="#02302D"/>
<path d="M249.99 11.7V97.87C249.99 103.19 251.05 105.47 253.49 106.84V107.9H234.64V106.84C236.92 105.47 237.98 103.19 237.98 97.87V11.7C237.98 6.38001 236.92 4.09998 234.64 2.72998V1.51001H253.49V2.72998C251.06 4.09998 249.99 6.38001 249.99 11.7Z" fill="#02302D"/>
<path d="M350.45 14.29L345.89 30.1H344.83C336.17 9.72997 325.07 1.97998 313.07 1.97998C298.02 1.97998 289.36 10.49 288.45 19.61C285.56 50.01 350.76 39.98 350.76 77.97C350.76 96.05 334.5 108.82 312.92 108.82C294.84 108.82 283.59 102.74 271.73 93.77L276.29 76.4401H277.35C285.1 91.9401 299.23 105.77 319.14 105.77C332.06 105.77 342.85 97.41 344.06 87.84C348.01 55.47 282.66 65.8 282.66 27.66C282.66 15.35 292.54 0 317.01 0C328.71 0 341.48 7.28998 350.45 14.29Z" fill="#02302D"/>
<path d="M479.32 54.41C479.32 84.35 454.24 108.82 424.15 108.82C394.06 108.82 368.98 84.35 368.98 54.41C368.98 24.47 394.06 0 424.15 0C454.24 0 479.32 24.32 479.32 54.41ZM464.73 41.95C456.52 15.2 434.03 -4.09998 408.65 3.65002C383.27 11.4 375.37 39.97 383.57 66.72C391.78 93.62 414.27 112.92 439.65 105.17C465.03 97.42 472.93 68.85 464.73 41.95Z" fill="#02302D"/>
<path d="M591.02 1.52002V2.73999C586 5.31999 581.44 13.23 581.44 19.76V107.91H579.16L506.82 15.36V89.6801C506.82 96.2201 511.38 104.27 516.55 106.85V107.91H496.03V106.85C501.2 104.27 505.76 96.2101 505.76 89.6801V14L496.03 1.53998H511.38L580.23 88.78V19.78C580.23 13.24 575.67 5.34001 570.66 2.76001V1.53998H591.03L591.02 1.52002Z" fill="#02302D"/>
<path d="M740.11 107.91H716.71V106.85C720.66 102.9 719.45 97.58 715.19 86.48L707.74 67.1801H670.05L665.95 78.73C661.09 92.56 660.33 100.01 666.71 106.85V107.91H648.78V106.85C655.32 100.01 659.72 93.02 664.74 78.73L687.54 14.6L682.52 1.53003H694.53L724.17 78.74C730.4 93.94 734.35 100.02 740.13 106.86V107.92L740.11 107.91ZM707.28 65.96L688.13 16.26L670.5 65.96H707.28Z" fill="#02302D"/>
<path d="M828.1 32.68C828.1 54.11 808.19 63.6801 778.25 63.6801H770.8V97.88C770.8 103.2 771.86 105.48 774.14 106.85V107.91H755.3V106.85C757.73 105.48 758.8 103.2 758.8 97.88V11.71C758.8 6.24002 757.74 4.10999 755.3 2.73999V1.52002H778.25C808.19 1.52002 828.1 11.1 828.1 32.68ZM816.09 32.68C816.09 14.75 805.6 2.73999 778.25 2.73999H770.8V62.47H778.25C805.61 62.47 816.09 50.46 816.09 32.68Z" fill="#02302D"/>
<path d="M955.15 54.41C955.15 84.35 930.07 108.82 899.98 108.82C869.89 108.82 844.81 84.35 844.81 54.41C844.81 24.47 869.89 0 899.98 0C930.07 0 955.15 24.32 955.15 54.41ZM940.56 41.95C932.35 15.2 909.86 -4.09998 884.48 3.65002C859.1 11.4 851.2 39.97 859.4 66.72C867.61 93.62 890.1 112.92 915.48 105.17C940.86 97.42 948.76 68.85 940.56 41.95Z" fill="#02302D"/>
<path d="M1040.1 89.52L1036.76 107.91H973.38V106.85C975.81 105.48 976.88 103.2 976.88 97.88V11.71C976.88 6.24002 975.82 4.10999 973.38 2.73999V1.52002H992.22V2.73999C989.94 4.10999 988.88 6.24002 988.88 11.71V106.85H1002.71C1019.58 106.85 1032.04 98.19 1039.18 88.92L1040.09 89.53L1040.1 89.52Z" fill="#02302D"/>
<path d="M1123.53 89.52L1120.19 107.91H1056.81V106.85C1059.24 105.48 1060.31 103.2 1060.31 97.88V11.71C1060.31 6.24002 1059.25 4.10999 1056.81 2.73999V1.52002H1075.65V2.73999C1073.37 4.10999 1072.31 6.24002 1072.31 11.71V106.85H1086.14C1103.01 106.85 1115.47 98.19 1122.61 88.92L1123.52 89.53L1123.53 89.52Z" fill="#02302D"/>
<path d="M1155.6 11.7V97.87C1155.6 103.19 1156.66 105.47 1159.1 106.84V107.9H1140.26V106.84C1142.54 105.47 1143.6 103.19 1143.6 97.87V11.7C1143.6 6.38001 1142.54 4.09998 1140.26 2.72998V1.51001H1159.1V2.72998C1156.67 4.09998 1155.6 6.38001 1155.6 11.7Z" fill="#02302D"/>
<path d="M1273.84 1.52002V2.73999C1268.82 5.31999 1264.26 13.23 1264.26 19.76V107.91H1261.98L1189.64 15.36V89.6801C1189.64 96.2201 1194.2 104.27 1199.37 106.85V107.91H1178.85V106.85C1184.02 104.27 1188.58 96.2101 1188.58 89.6801V14L1178.85 1.53998H1194.2L1263.05 88.78V19.78C1263.05 13.24 1258.49 5.34001 1253.48 2.76001V1.53998H1273.85L1273.84 1.52002Z" fill="#02302D"/>
<path d="M1358.64 89.52L1355.3 107.91H1293.6V106.85C1295.88 105.48 1296.94 103.2 1296.94 97.88V11.71C1296.94 6.39002 1295.88 4.10999 1293.6 2.73999V1.52002H1350.44L1353.63 18.39L1352.87 19C1345.88 11.1 1336.46 2.73999 1319.59 2.73999H1308.95V47.5699L1347.25 44.23V51.98L1308.95 48.79V106.85H1321.26C1337.98 106.85 1350.59 98.19 1357.73 88.92L1358.64 89.53V89.52Z" fill="#02302D"/>
<path d="M20.75 174.63H6.75V152.18H7.95999V173.5H20.75V174.62V174.63Z" fill="#02302D"/>
<path d="M25.58 153.33C25.58 154 25.32 154.69 24.81 155.4C24.29 156.11 23.59 156.74 22.7 157.28L22.33 156.73C23.69 155.86 24.52 154.9 24.82 153.84C24.6 154.06 24.31 154.17 23.97 154.17C23.69 154.17 23.43 154.06 23.21 153.85C22.99 153.64 22.88 153.37 22.88 153.04C22.88 152.68 23.01 152.37 23.26 152.13C23.51 151.89 23.83 151.77 24.22 151.77C24.61 151.77 24.93 151.92 25.19 152.21C25.45 152.5 25.58 152.87 25.58 153.32V153.33Z" fill="#02302D"/>
<path d="M46.05 174.63H32.59V152.18H45.92V153.3H33.8V162.72H45.16V163.84H33.8V173.5H46.04V174.62L46.05 174.63ZM39.52 150.39H38.52L40.34 145.65H41.95L39.52 150.39Z" fill="#02302D"/>
<path d="M67.3201 174.63H53.3201V152.18H54.5301V173.5H67.3201V174.62V174.63Z" fill="#02302D"/>
<path d="M86.94 174.63H73.48V152.18H86.81V153.3H74.69V162.72H86.05V163.84H74.69V173.5H86.93V174.62L86.94 174.63ZM80.41 150.39H79.41L81.23 145.65H82.84L80.41 150.39Z" fill="#02302D"/>
<path d="M103.58 174.96C100.26 174.96 97.53 173.87 95.38 171.68C93.21 169.47 92.13 166.72 92.13 163.42C92.13 160.12 93.26 157.29 95.53 155.1C97.8 152.89 100.54 151.79 103.76 151.79C105.6 151.79 107.37 152.17 109.07 152.94C110.77 153.71 112.12 154.71 113.11 155.95L112.26 156.74C111.37 155.59 110.14 154.65 108.59 153.95C107.07 153.26 105.46 152.92 103.76 152.92C100.8 152.92 98.32 153.92 96.32 155.93C94.33 157.96 93.34 160.46 93.34 163.43C93.34 166.4 94.3 168.92 96.22 170.9C98.16 172.86 100.61 173.85 103.57 173.85C106.97 173.85 109.97 172.51 112.56 169.84V164.22H102.75V163.1H113.74V170.21C110.99 173.39 107.59 174.98 103.57 174.98L103.58 174.96Z" fill="#02302D"/>
<path d="M136.63 174.63H135.32L132.49 167.28H122.44L119.58 174.63H118.27L127.08 152.18H127.84L136.62 174.63H136.63ZM132.1 166.15L127.45 154.21L122.8 166.15H132.09H132.1Z" fill="#02302D"/>
<path d="M158.5 172.04V152.18H159.71V174.63H158.98L144.1 154.98V174.63H142.89V152.18H143.5L158.5 172.04Z" fill="#02302D"/>
<path d="M178.54 174.96C175.3 174.96 172.58 173.89 170.37 171.74C168.14 169.57 167.03 166.82 167.03 163.48C167.03 160.14 168.15 157.28 170.4 155.1C172.67 152.89 175.4 151.79 178.6 151.79C180.66 151.79 182.57 152.26 184.31 153.19C186.09 154.12 187.45 155.33 188.38 156.8L187.44 157.38C186.61 156.04 185.4 154.97 183.8 154.16C182.18 153.33 180.44 152.91 178.58 152.91C175.64 152.91 173.18 153.9 171.2 155.89C169.22 157.88 168.25 160.35 168.25 163.39C168.25 166.43 169.22 168.93 171.17 170.89C173.13 172.85 175.59 173.84 178.55 173.84C180.35 173.84 182.05 173.46 183.64 172.69C185.23 171.92 186.52 170.86 187.51 169.5L188.36 170.14C187.23 171.64 185.8 172.82 184.09 173.68C182.38 174.54 180.53 174.97 178.55 174.97L178.54 174.96Z" fill="#02302D"/>
<path d="M208.58 174.63H195.12V152.18H208.45V153.3H196.33V162.72H207.69V163.84H196.33V173.5H208.57V174.62L208.58 174.63Z" fill="#02302D"/>
<path d="M241.48 172.04V152.18H242.69V174.63H241.96L227.08 154.98V174.63H225.87V152.18H226.48L241.48 172.04Z" fill="#02302D"/>
<path d="M267.26 174.63H265.95L263.12 167.28H253.07L250.21 174.63H248.9L257.71 152.18H258.47L267.25 174.63H267.26ZM262.74 166.15L258.09 154.21L253.44 166.15H262.73H262.74Z" fill="#02302D"/>
<path d="M275.65 174.63V153.31H268.75V152.19H283.72V153.31H276.86V174.63H275.65Z" fill="#02302D"/>
<path d="M289.65 167.46V152.18H290.86V167.34C290.86 169.39 291.4 170.98 292.47 172.11C293.54 173.24 295.03 173.81 296.93 173.81C298.83 173.81 300.32 173.24 301.38 172.11C302.44 170.98 302.97 169.39 302.97 167.34V152.18H304.18V167.46C304.18 169.79 303.52 171.64 302.21 173.02C300.89 174.36 299.13 175.02 296.92 175.02C294.71 175.02 292.94 174.35 291.6 173.02C290.28 171.64 289.63 169.79 289.63 167.46H289.65Z" fill="#02302D"/>
<path d="M320.69 164.85L326.43 174.63H325.03L319.44 164.97C319.34 164.99 319.12 165 318.77 165H314.06V174.63H312.85V152.18H319.17C321.5 152.18 323.27 152.81 324.49 154.06C325.72 155.3 326.34 156.8 326.34 158.59C326.34 160.09 325.85 161.42 324.88 162.6C323.95 163.75 322.55 164.5 320.69 164.85ZM314.07 153.3V163.87H318.84C320.78 163.87 322.32 163.38 323.44 162.41C324.56 161.44 325.13 160.15 325.13 158.55C325.13 156.95 324.59 155.67 323.51 154.72C322.43 153.77 320.98 153.29 319.18 153.29H314.08L314.07 153.3Z" fill="#02302D"/>
<path d="M347.27 174.63H333.81V152.18H347.14V153.3H335.02V162.72H346.38V163.84H335.02V173.5H347.26V174.62L347.27 174.63Z" fill="#02302D"/>
<path d="M368.53 174.63H354.53V152.18H355.74V173.5H368.53V174.62V174.63Z" fill="#02302D"/>
<path d="M388.7 174.63H374.7V152.18H375.91V173.5H388.7V174.62V174.63Z" fill="#02302D"/>
<path d="M408.32 174.63H394.86V152.18H408.19V153.3H396.07V162.72H407.43V163.84H396.07V173.5H408.31V174.62L408.32 174.63Z" fill="#02302D"/>
<path d="M1360.22 163.58H429.28V164.58H1360.22V163.58Z" fill="#02302D"/>
</svg>
