<svg width="1674" height="231" viewBox="0 0 1674 231" fill="none" xmlns="http://www.w3.org/2000/svg">
<path d="M422.66 34.87V121.04C422.66 126.36 423.72 128.64 426.16 130.01V131.07H407.32V130.01C409.6 128.64 410.82 126.36 410.82 121.04V29.25L368.87 101.9H367.5L324.03 35.64V112.84C324.03 119.38 328.59 127.43 333.6 130.01V131.07H313.24V130.01C318.25 127.43 322.81 119.37 322.81 112.84V34.12L315.97 24.7H329.65L373.27 92.03L412.02 24.7H426.15V25.92C423.72 27.29 422.65 29.42 422.65 34.89L422.66 34.87Z" fill="#02302D"/>
<path d="M532.69 131.08H509.28V130.02C513.23 126.07 512.02 120.75 507.76 109.65L500.31 90.35H462.62L458.52 101.9C453.66 115.73 452.9 123.18 459.28 130.02V131.08H441.35V130.02C447.88 123.18 452.29 116.19 457.31 101.9L480.11 37.77L475.1 24.7H487.11L516.75 101.91C522.98 117.11 526.93 123.19 532.71 130.03V131.09L532.69 131.08ZM499.86 89.1299L480.71 39.43L463.08 89.1299H499.86Z" fill="#02302D"/>
<path d="M563.23 34.87V121.04C563.23 126.36 564.29 128.64 566.73 130.01V131.07H547.88V130.01C550.16 128.64 551.22 126.36 551.22 121.04V34.87C551.22 29.55 550.16 27.27 547.88 25.9V24.68H566.73V25.9C564.3 27.27 563.23 29.55 563.23 34.87Z" fill="#02302D"/>
<path d="M663.69 37.46L659.13 53.27H658.07C649.41 32.9 638.31 25.15 626.31 25.15C611.26 25.15 602.6 33.66 601.69 42.78C598.8 73.18 664 63.15 664 101.14C664 119.22 647.74 131.99 626.16 131.99C608.08 131.99 596.83 125.91 584.97 116.94L589.53 99.61H590.59C598.34 115.11 612.47 128.94 632.38 128.94C645.3 128.94 656.09 120.58 657.3 111.01C661.25 78.6399 595.9 88.97 595.9 50.83C595.9 38.52 605.78 23.17 630.25 23.17C641.95 23.17 654.72 30.46 663.69 37.46Z" fill="#02302D"/>
<path d="M792.56 77.58C792.56 107.52 767.48 131.99 737.39 131.99C707.3 131.99 682.22 107.52 682.22 77.58C682.22 47.64 707.3 23.17 737.39 23.17C767.48 23.17 792.56 47.49 792.56 77.58ZM777.97 65.1199C769.76 38.3699 747.27 19.07 721.89 26.82C696.51 34.57 688.61 63.14 696.81 89.89C705.02 116.79 727.51 136.09 752.89 128.34C778.27 120.59 786.17 92.0199 777.97 65.1199Z" fill="#02302D"/>
<path d="M904.26 24.69V25.91C899.24 28.49 894.68 36.4 894.68 42.93V131.08H892.4L820.06 38.53V112.85C820.06 119.39 824.62 127.44 829.79 130.02V131.08H809.27V130.02C814.44 127.44 819 119.38 819 112.85V37.17L809.27 24.71H824.62L893.47 111.95V42.95C893.47 36.41 888.91 28.51 883.9 25.93V24.71H904.27L904.26 24.69Z" fill="#02302D"/>
<path d="M1053.35 131.08H1029.95V130.02C1033.9 126.07 1032.69 120.75 1028.43 109.65L1020.98 90.35H983.29L979.19 101.9C974.33 115.73 973.57 123.18 979.95 130.02V131.08H962.02V130.02C968.56 123.18 972.96 116.19 977.98 101.9L1000.78 37.77L995.76 24.7H1007.77L1037.41 101.91C1043.64 117.11 1047.59 123.19 1053.37 130.03V131.09L1053.35 131.08ZM1020.52 89.1299L1001.37 39.43L983.74 89.1299H1020.52Z" fill="#02302D"/>
<path d="M1141.34 55.85C1141.34 77.28 1121.43 86.85 1091.49 86.85H1084.04V121.05C1084.04 126.37 1085.1 128.65 1087.38 130.02V131.08H1068.54V130.02C1070.97 128.65 1072.04 126.37 1072.04 121.05V34.88C1072.04 29.41 1070.98 27.28 1068.54 25.91V24.69H1091.49C1121.43 24.69 1141.34 34.27 1141.34 55.85ZM1129.33 55.85C1129.33 37.92 1118.84 25.91 1091.49 25.91H1084.04V85.64H1091.49C1118.85 85.64 1129.33 73.63 1129.33 55.85Z" fill="#02302D"/>
<path d="M1268.39 77.58C1268.39 107.52 1243.31 131.99 1213.22 131.99C1183.13 131.99 1158.05 107.52 1158.05 77.58C1158.05 47.64 1183.13 23.17 1213.22 23.17C1243.31 23.17 1268.39 47.49 1268.39 77.58ZM1253.8 65.1199C1245.59 38.3699 1223.1 19.07 1197.72 26.82C1172.34 34.57 1164.44 63.14 1172.64 89.89C1180.85 116.79 1203.34 136.09 1228.72 128.34C1254.1 120.59 1262 92.0199 1253.8 65.1199Z" fill="#02302D"/>
<path d="M1353.34 112.69L1350 131.08H1286.62V130.02C1289.05 128.65 1290.12 126.37 1290.12 121.05V34.88C1290.12 29.41 1289.06 27.28 1286.62 25.91V24.69H1305.46V25.91C1303.18 27.28 1302.12 29.41 1302.12 34.88V130.02H1315.95C1332.82 130.02 1345.28 121.36 1352.42 112.09L1353.33 112.7L1353.34 112.69Z" fill="#02302D"/>
<path d="M1436.77 112.69L1433.43 131.08H1370.05V130.02C1372.48 128.65 1373.55 126.37 1373.55 121.05V34.88C1373.55 29.41 1372.49 27.28 1370.05 25.91V24.69H1388.89V25.91C1386.61 27.28 1385.55 29.41 1385.55 34.88V130.02H1399.38C1416.25 130.02 1428.71 121.36 1435.85 112.09L1436.76 112.7L1436.77 112.69Z" fill="#02302D"/>
<path d="M1468.84 34.87V121.04C1468.84 126.36 1469.9 128.64 1472.34 130.01V131.07H1453.5V130.01C1455.78 128.64 1456.84 126.36 1456.84 121.04V34.87C1456.84 29.55 1455.78 27.27 1453.5 25.9V24.68H1472.34V25.9C1469.91 27.27 1468.84 29.55 1468.84 34.87Z" fill="#02302D"/>
<path d="M1587.08 24.69V25.91C1582.06 28.49 1577.5 36.4 1577.5 42.93V131.08H1575.22L1502.88 38.53V112.85C1502.88 119.39 1507.44 127.44 1512.61 130.02V131.08H1492.09V130.02C1497.26 127.44 1501.82 119.38 1501.82 112.85V37.17L1492.09 24.71H1507.44L1576.29 111.95V42.95C1576.29 36.41 1571.73 28.51 1566.72 25.93V24.71H1587.09L1587.08 24.69Z" fill="#02302D"/>
<path d="M1671.88 112.69L1668.54 131.08H1606.84V130.02C1609.12 128.65 1610.18 126.37 1610.18 121.05V34.88C1610.18 29.56 1609.12 27.28 1606.84 25.91V24.69H1663.68L1666.87 41.56L1666.11 42.17C1659.12 34.27 1649.7 25.91 1632.83 25.91H1622.19V70.7399L1660.49 67.4V75.15L1622.19 71.96V130.02H1634.5C1651.22 130.02 1663.83 121.36 1670.97 112.09L1671.88 112.7V112.69Z" fill="#02302D"/>
<path d="M233.5 115.15C233.5 178.51 180.43 230.3 116.75 230.3C53.07 230.3 0 178.52 0 115.15C0 51.78 53.07 0 116.75 0C180.43 0 233.5 51.46 233.5 115.15ZM202.63 88.78C185.26 32.17 137.66 -8.68002 83.95 7.72998C30.24 24.13 13.51 84.6 30.88 141.21C48.25 198.14 95.85 238.99 149.56 222.58C203.27 206.18 220 145.71 202.63 88.78Z" fill="#02302D"/>
<path d="M333.99 197.8H319.99V175.35H321.2V196.67H333.99V197.79V197.8Z" fill="#02302D"/>
<path d="M338.82 176.5C338.82 177.17 338.56 177.86 338.05 178.57C337.53 179.28 336.83 179.91 335.94 180.45L335.57 179.9C336.93 179.03 337.76 178.07 338.06 177.01C337.84 177.23 337.55 177.34 337.21 177.34C336.93 177.34 336.67 177.23 336.45 177.02C336.23 176.81 336.12 176.54 336.12 176.21C336.12 175.85 336.25 175.54 336.5 175.3C336.75 175.06 337.07 174.94 337.46 174.94C337.85 174.94 338.17 175.09 338.43 175.38C338.69 175.67 338.82 176.04 338.82 176.49V176.5Z" fill="#02302D"/>
<path d="M359.29 197.8H345.83V175.35H359.16V176.47H347.04V185.89H358.4V187.01H347.04V196.67H359.28V197.79L359.29 197.8ZM352.76 173.56H351.76L353.58 168.82H355.19L352.76 173.56Z" fill="#02302D"/>
<path d="M380.56 197.8H366.56V175.35H367.77V196.67H380.56V197.79V197.8Z" fill="#02302D"/>
<path d="M400.18 197.8H386.72V175.35H400.05V176.47H387.93V185.89H399.29V187.01H387.93V196.67H400.17V197.79L400.18 197.8ZM393.65 173.56H392.65L394.47 168.82H396.08L393.65 173.56Z" fill="#02302D"/>
<path d="M416.82 198.13C413.5 198.13 410.77 197.04 408.62 194.85C406.45 192.64 405.37 189.89 405.37 186.59C405.37 183.29 406.5 180.46 408.77 178.27C411.04 176.06 413.78 174.96 417 174.96C418.84 174.96 420.61 175.34 422.31 176.11C424.01 176.88 425.36 177.88 426.35 179.12L425.5 179.91C424.61 178.76 423.38 177.82 421.83 177.12C420.31 176.43 418.7 176.09 417 176.09C414.04 176.09 411.56 177.09 409.56 179.1C407.57 181.13 406.58 183.63 406.58 186.6C406.58 189.57 407.54 192.09 409.46 194.07C411.4 196.03 413.85 197.02 416.81 197.02C420.21 197.02 423.21 195.68 425.8 193.01V187.39H415.99V186.27H426.98V193.38C424.23 196.56 420.83 198.15 416.81 198.15L416.82 198.13Z" fill="#02302D"/>
<path d="M449.87 197.8H448.56L445.73 190.45H435.68L432.82 197.8H431.51L440.32 175.35H441.08L449.86 197.8H449.87ZM445.34 189.32L440.69 177.38L436.04 189.32H445.33H445.34Z" fill="#02302D"/>
<path d="M471.74 195.21V175.35H472.95V197.8H472.22L457.34 178.15V197.8H456.13V175.35H456.74L471.74 195.21Z" fill="#02302D"/>
<path d="M491.78 198.13C488.54 198.13 485.82 197.06 483.61 194.91C481.38 192.74 480.27 189.99 480.27 186.65C480.27 183.31 481.39 180.45 483.64 178.27C485.91 176.06 488.64 174.96 491.84 174.96C493.9 174.96 495.81 175.43 497.55 176.36C499.33 177.29 500.69 178.5 501.62 179.97L500.68 180.55C499.85 179.21 498.64 178.14 497.04 177.33C495.42 176.5 493.68 176.08 491.82 176.08C488.88 176.08 486.42 177.07 484.44 179.06C482.46 181.05 481.49 183.52 481.49 186.56C481.49 189.6 482.46 192.1 484.41 194.06C486.37 196.02 488.83 197.01 491.79 197.01C493.59 197.01 495.29 196.63 496.88 195.86C498.47 195.09 499.76 194.03 500.75 192.67L501.6 193.31C500.47 194.81 499.04 195.99 497.33 196.85C495.62 197.71 493.77 198.14 491.79 198.14L491.78 198.13Z" fill="#02302D"/>
<path d="M521.82 197.8H508.36V175.35H521.69V176.47H509.57V185.89H520.93V187.01H509.57V196.67H521.81V197.79L521.82 197.8Z" fill="#02302D"/>
<path d="M554.72 195.21V175.35H555.93V197.8H555.2L540.32 178.15V197.8H539.11V175.35H539.72L554.72 195.21Z" fill="#02302D"/>
<path d="M580.5 197.8H579.19L576.36 190.45H566.31L563.45 197.8H562.14L570.95 175.35H571.71L580.49 197.8H580.5ZM575.98 189.32L571.33 177.38L566.68 189.32H575.97H575.98Z" fill="#02302D"/>
<path d="M588.89 197.8V176.48H581.99V175.36H596.96V176.48H590.1V197.8H588.89Z" fill="#02302D"/>
<path d="M602.89 190.63V175.35H604.1V190.51C604.1 192.56 604.64 194.15 605.71 195.28C606.78 196.41 608.27 196.98 610.17 196.98C612.07 196.98 613.56 196.41 614.62 195.28C615.68 194.15 616.21 192.56 616.21 190.51V175.35H617.42V190.63C617.42 192.96 616.76 194.81 615.45 196.19C614.13 197.53 612.37 198.19 610.16 198.19C607.95 198.19 606.18 197.52 604.84 196.19C603.52 194.81 602.87 192.96 602.87 190.63H602.89Z" fill="#02302D"/>
<path d="M633.93 188.02L639.67 197.8H638.27L632.68 188.14C632.58 188.16 632.36 188.17 632.01 188.17H627.3V197.8H626.09V175.35H632.41C634.74 175.35 636.51 175.98 637.73 177.23C638.96 178.47 639.58 179.97 639.58 181.76C639.58 183.26 639.09 184.59 638.12 185.77C637.19 186.92 635.79 187.67 633.93 188.02ZM627.31 176.47V187.04H632.08C634.02 187.04 635.56 186.55 636.68 185.58C637.8 184.61 638.37 183.32 638.37 181.72C638.37 180.12 637.83 178.84 636.75 177.89C635.67 176.94 634.22 176.46 632.42 176.46H627.32L627.31 176.47Z" fill="#02302D"/>
<path d="M660.51 197.8H647.05V175.35H660.38V176.47H648.26V185.89H659.62V187.01H648.26V196.67H660.5V197.79L660.51 197.8Z" fill="#02302D"/>
<path d="M681.77 197.8H667.77V175.35H668.98V196.67H681.77V197.79V197.8Z" fill="#02302D"/>
<path d="M701.94 197.8H687.94V175.35H689.15V196.67H701.94V197.79V197.8Z" fill="#02302D"/>
<path d="M721.56 197.8H708.1V175.35H721.43V176.47H709.31V185.89H720.67V187.01H709.31V196.67H721.55V197.79L721.56 197.8Z" fill="#02302D"/>
<path d="M1673.46 186.75H742.52V187.75H1673.46V186.75Z" fill="#02302D"/>
<path d="M99.8201 101.7C102.49 104.09 104.05 106.38 104.91 107.65C107.43 111.38 109.17 115.54 110.22 120.11C110.8 122.62 111.39 125.12 111.98 127.62C112.9 114.9 109.8 103.17 103.5 92.2599C102.61 90.7099 101.31 89.41 99.5101 88.83C99.2301 88.74 95.8601 87.6299 93.7801 89.6499C92.2901 91.0999 92.1901 93.47 92.6901 95.11C93.5401 97.9 96.0201 98.3 99.8101 101.69L99.8201 101.7Z" fill="#02302D"/>
<path d="M98.6701 118.22C101.05 119.37 100.97 119.25 101.7 119.66C106.59 122.41 109.2 126.91 110.65 130.42C110.53 129.78 110.36 128.83 110.13 127.67C109.97 126.86 109.82 126.11 109.76 125.84C109.76 125.84 109.24 123.39 108.05 120.53C107.16 118.38 103.15 109.93 95.5501 105.17C92.5101 103.26 90.4801 102.94 89.0201 103.57C88.8601 103.64 88.4301 103.83 87.9901 104.23C86.4001 105.65 86.1101 108.42 86.6801 110.28C87.4401 112.78 91.1901 114.63 98.6601 118.22H98.6701Z" fill="#02302D"/>
<path d="M115.7 103.15C119.37 87.7499 115.56 75.6199 115.56 75.6199C115.23 74.4599 114.41 71.8399 113.48 71.8799C112.64 71.9099 112.16 74.11 111.9 74.93C107.89 87.39 110.62 99.5399 113.95 111.79C114.53 108.91 115.02 106.01 115.7 103.15Z" fill="#02302D"/>
<path d="M141.97 125.28C141.96 125.12 141.89 124.26 141.38 123.39C140.27 121.49 137.92 120.96 137.11 120.78C130.08 119.19 119.91 128.27 117.58 132.22C117.5 132.35 116.7 133.67 115.72 135.49C115.72 135.49 114.46 138.13 113.76 139.13C113.75 139.15 113.71 139.19 113.67 139.19C113.63 139.19 113.6 139.15 113.59 139.14C113.03 138.48 111.64 135.52 111.64 135.52C111.31 134.83 110.86 134.06 109.94 132.51C109.85 132.36 109.8 132.27 109.78 132.24C107.44 128.29 97.2801 119.21 90.2501 120.8C89.4401 120.98 87.0901 121.52 85.9801 123.41C85.4701 124.28 85.4001 125.14 85.3901 125.3C85.3901 125.3 85.2801 126.79 86.2401 128.3C87.4701 130.22 91.3601 131.03 95.8801 129.9C98.7101 129.46 100.72 129.95 101.95 130.41C105.67 131.8 107.95 135.09 112.08 141.02C112.77 142.01 113.32 142.85 113.69 143.42C113.69 143.41 113.71 143.39 113.72 143.37C114.09 142.8 114.63 141.97 115.32 140.98C119.44 135.05 121.73 131.76 125.45 130.37C126.68 129.91 128.69 129.42 131.52 129.86C136.04 130.99 139.93 130.18 141.16 128.26C142.12 126.75 142.01 125.26 142.01 125.26L141.97 125.28Z" fill="#02302D"/>
<path d="M115.36 127.59C115.95 125.09 116.54 122.58 117.12 120.08C118.17 115.52 119.91 111.36 122.43 107.62C123.29 106.34 124.85 104.05 127.52 101.67C131.31 98.28 133.79 97.88 134.64 95.09C135.14 93.44 135.04 91.0799 133.55 89.6299C131.47 87.6099 128.11 88.72 127.82 88.81C126.03 89.39 124.73 90.6999 123.83 92.2399C117.53 103.15 114.44 114.88 115.35 127.6L115.36 127.59Z" fill="#02302D"/>
<path d="M119.27 120.49C118.09 123.35 117.56 125.8 117.56 125.8C117.5 126.07 117.35 126.82 117.19 127.63C116.96 128.78 116.79 129.74 116.67 130.38C118.12 126.87 120.73 122.37 125.62 119.62C126.36 119.21 126.27 119.32 128.65 118.18C136.12 114.58 139.87 112.73 140.63 110.24C141.2 108.38 140.91 105.61 139.32 104.19C138.88 103.79 138.45 103.6 138.29 103.53C136.82 102.9 134.8 103.22 131.76 105.13C124.17 109.9 120.15 118.34 119.26 120.49H119.27Z" fill="#02302D"/>
<path d="M117.77 144.35C115.9 144.8 114.77 146.12 113.66 148.01C112.55 146.12 111.42 144.79 109.55 144.35C108.43 144.08 107.59 144.62 107.2 145.52C106.81 146.4 107.6 147 108.34 147.2C110.85 147.88 112.51 149.42 113.55 152.01C113.59 152.1 113.62 152.19 113.66 152.28C113.7 152.19 113.73 152.1 113.77 152.01C114.81 149.41 116.47 147.87 118.98 147.2C119.72 147 120.51 146.4 120.12 145.52C119.73 144.62 118.89 144.08 117.77 144.35Z" fill="#02302D"/>
</svg>
